%TF.GenerationSoftware,KiCad,Pcbnew,(5.1.10)-1*%
%TF.CreationDate,2021-11-04T11:59:55+01:00*%
%TF.ProjectId,2DMega,32444d65-6761-42e6-9b69-6361645f7063,rev?*%
%TF.SameCoordinates,Original*%
%TF.FileFunction,Soldermask,Bot*%
%TF.FilePolarity,Negative*%
%FSLAX46Y46*%
G04 Gerber Fmt 4.6, Leading zero omitted, Abs format (unit mm)*
G04 Created by KiCad (PCBNEW (5.1.10)-1) date 2021-11-04 11:59:55*
%MOMM*%
%LPD*%
G01*
G04 APERTURE LIST*
%ADD10C,1.727200*%
%ADD11O,1.727200X1.727200*%
%ADD12O,1.727200X2.032000*%
%ADD13C,4.064000*%
%ADD14R,1.700000X1.700000*%
%ADD15O,1.700000X1.700000*%
%ADD16C,1.700000*%
G04 APERTURE END LIST*
D10*
%TO.C,P4*%
X197358000Y-114046000D03*
D11*
X199898000Y-114046000D03*
X197358000Y-111506000D03*
X199898000Y-111506000D03*
X197358000Y-108966000D03*
X199898000Y-108966000D03*
X197358000Y-106426000D03*
X199898000Y-106426000D03*
X197358000Y-103886000D03*
X199898000Y-103886000D03*
X197358000Y-101346000D03*
X199898000Y-101346000D03*
X197358000Y-98806000D03*
X199898000Y-98806000D03*
X197358000Y-96266000D03*
X199898000Y-96266000D03*
X197358000Y-93726000D03*
X199898000Y-93726000D03*
X197358000Y-91186000D03*
X199898000Y-91186000D03*
X197358000Y-88646000D03*
X199898000Y-88646000D03*
X197358000Y-86106000D03*
X199898000Y-86106000D03*
X197358000Y-83566000D03*
X199898000Y-83566000D03*
X197358000Y-81026000D03*
X199898000Y-81026000D03*
X197358000Y-78486000D03*
X199898000Y-78486000D03*
X197358000Y-75946000D03*
X199898000Y-75946000D03*
X197358000Y-73406000D03*
X199898000Y-73406000D03*
X197358000Y-70866000D03*
X199898000Y-70866000D03*
%TD*%
D12*
%TO.C,P1*%
X131318000Y-119126000D03*
X133858000Y-119126000D03*
X136398000Y-119126000D03*
X138938000Y-119126000D03*
X141478000Y-119126000D03*
X144018000Y-119126000D03*
X146558000Y-119126000D03*
X149098000Y-119126000D03*
%TD*%
%TO.C,P2*%
X154178000Y-119126000D03*
X156718000Y-119126000D03*
X159258000Y-119126000D03*
X161798000Y-119126000D03*
X164338000Y-119126000D03*
X166878000Y-119126000D03*
X169418000Y-119126000D03*
X171958000Y-119126000D03*
%TD*%
%TO.C,P3*%
X177038000Y-119126000D03*
X179578000Y-119126000D03*
X182118000Y-119126000D03*
X184658000Y-119126000D03*
X187198000Y-119126000D03*
X189738000Y-119126000D03*
X192278000Y-119126000D03*
X194818000Y-119126000D03*
%TD*%
%TO.C,P5*%
X122174000Y-70866000D03*
X124714000Y-70866000D03*
X127254000Y-70866000D03*
X129794000Y-70866000D03*
X132334000Y-70866000D03*
X134874000Y-70866000D03*
X137414000Y-70866000D03*
X139954000Y-70866000D03*
X142494000Y-70866000D03*
X145034000Y-70866000D03*
%TD*%
%TO.C,P6*%
X149098000Y-70866000D03*
X151638000Y-70866000D03*
X154178000Y-70866000D03*
X156718000Y-70866000D03*
X159258000Y-70866000D03*
X161798000Y-70866000D03*
X164338000Y-70866000D03*
X166878000Y-70866000D03*
%TD*%
%TO.C,P7*%
X171958000Y-70866000D03*
X174498000Y-70866000D03*
X177038000Y-70866000D03*
X179578000Y-70866000D03*
X182118000Y-70866000D03*
X184658000Y-70866000D03*
X187198000Y-70866000D03*
X189738000Y-70866000D03*
%TD*%
D13*
%TO.C,P8*%
X117348000Y-119126000D03*
%TD*%
%TO.C,P9*%
X169418000Y-114046000D03*
%TD*%
%TO.C,P10*%
X199898000Y-119126000D03*
%TD*%
%TO.C,P11*%
X118618000Y-70866000D03*
%TD*%
%TO.C,P12*%
X169418000Y-86106000D03*
%TD*%
%TO.C,P13*%
X193548000Y-70866000D03*
%TD*%
D14*
%TO.C,J1*%
X146050000Y-44450000D03*
D15*
X148590000Y-44450000D03*
X151130000Y-44450000D03*
X153670000Y-44450000D03*
X156210000Y-44450000D03*
X158750000Y-44450000D03*
%TD*%
D14*
%TO.C,J2*%
X146050000Y-151130000D03*
D15*
X148590000Y-151130000D03*
X151130000Y-151130000D03*
X153670000Y-151130000D03*
X156210000Y-151130000D03*
X158750000Y-151130000D03*
%TD*%
%TO.C,J4*%
X205740000Y-104140000D03*
X205740000Y-101600000D03*
X205740000Y-99060000D03*
X205740000Y-96520000D03*
X205740000Y-93980000D03*
D14*
X205740000Y-91440000D03*
%TD*%
D15*
%TO.C,J5*%
X99060000Y-104140000D03*
X99060000Y-101600000D03*
X99060000Y-99060000D03*
X99060000Y-96520000D03*
X99060000Y-93980000D03*
D14*
X99060000Y-91440000D03*
%TD*%
%TO.C,J3*%
X142240000Y-126365000D03*
D15*
X142240000Y-123825000D03*
X144780000Y-126365000D03*
X144780000Y-123825000D03*
X147320000Y-126365000D03*
X147320000Y-123825000D03*
%TD*%
D14*
%TO.C,U1*%
X137795000Y-84455000D03*
D16*
X137795000Y-86995000D03*
X137795000Y-89535000D03*
X137795000Y-92075000D03*
X137795000Y-94615000D03*
X145415000Y-94615000D03*
X145415000Y-92075000D03*
X145415000Y-89535000D03*
X145415000Y-86995000D03*
X145415000Y-84455000D03*
%TD*%
%TO.C,R24*%
G36*
G01*
X195545000Y-65589999D02*
X195545000Y-66490001D01*
G75*
G02*
X195295001Y-66740000I-249999J0D01*
G01*
X194594999Y-66740000D01*
G75*
G02*
X194345000Y-66490001I0J249999D01*
G01*
X194345000Y-65589999D01*
G75*
G02*
X194594999Y-65340000I249999J0D01*
G01*
X195295001Y-65340000D01*
G75*
G02*
X195545000Y-65589999I0J-249999D01*
G01*
G37*
G36*
G01*
X193545000Y-65589999D02*
X193545000Y-66490001D01*
G75*
G02*
X193295001Y-66740000I-249999J0D01*
G01*
X192594999Y-66740000D01*
G75*
G02*
X192345000Y-66490001I0J249999D01*
G01*
X192345000Y-65589999D01*
G75*
G02*
X192594999Y-65340000I249999J0D01*
G01*
X193295001Y-65340000D01*
G75*
G02*
X193545000Y-65589999I0J-249999D01*
G01*
G37*
%TD*%
M02*
